<svg width="300" height="354" viewBox="0 0 300 354" fill="none" xmlns="http://www.w3.org/2000/svg">
<path id="A" d="M0 0H300V354H0.458015V326.742H141.527V272.934H94.3511V304.086H0.458015V262.314L0 49.914H188.244V86.376H235.42V326.742H264.733V27.258H0V0ZM189.618 271.164C192.061 270.692 193.282 269.512 193.282 267.624C193.282 267.388 193.13 267.034 192.824 266.562L122.29 84.96C121.679 83.308 120.153 82.482 117.71 82.482C115.573 82.482 114.198 83.308 113.588 84.96L43.0534 266.562C42.7481 266.798 42.5954 267.152 42.5954 267.624C42.5954 269.512 43.8168 270.692 46.2595 271.164C46.5649 271.164 47.0229 271.164 47.6336 271.164C49.771 271.164 51.145 270.338 51.7557 268.686L79.2366 198.948H156.641L183.664 268.686C184.275 270.338 185.802 271.164 188.244 271.164C188.55 271.164 188.702 271.164 188.702 271.164C189.008 271.164 189.313 271.164 189.618 271.164ZM81.9847 191.514L117.71 98.766L153.893 191.514H81.9847Z" fill="black"/>
</svg>
