<svg width="300" height="354" viewBox="0 0 300 354" fill="none" xmlns="http://www.w3.org/2000/svg">
<path id="D" d="M199.206 213.462C199.206 222.666 196.693 231.162 191.667 238.95C186.64 246.738 179.762 252.874 171.032 257.358C162.302 261.842 152.778 264.084 142.46 264.084H85.3175V89.916H142.46C158.069 89.916 171.429 94.872 182.54 104.784C193.651 114.696 199.206 126.614 199.206 140.538V213.462ZM0 0H300V354H0V326.742H269.444V27.258H40.4762V49.914H244.048V304.086H40.4762V158.946H0V0ZM76.9841 86.376V267.624C76.9841 268.804 77.381 269.748 78.1746 270.456C78.9683 271.164 80.0265 271.518 81.3492 271.518H142.46C160.45 271.518 175.794 265.854 188.492 254.526C201.19 243.198 207.54 229.51 207.54 213.462V140.538C207.54 124.49 201.19 110.802 188.492 99.474C175.794 88.146 160.45 82.482 142.46 82.482H81.3492C80.0265 82.482 78.9683 82.836 78.1746 83.544C77.381 84.252 76.9841 85.196 76.9841 86.376Z" fill="black"/>
</svg>
