<svg width="300" height="354" viewBox="0 0 300 354" fill="none" xmlns="http://www.w3.org/2000/svg">
<path id="K" d="M0 0H300V354H0V326.742H264.679V27.258H0V0ZM94.0367 224.436V304.086H0V49.914H94.0367V107.616L141.284 71.154V49.914H235.321V122.484H188.073V231.516H235.321V304.086H141.284V278.598L94.0367 224.436ZM51.8349 196.47L93.578 164.61L184.404 269.748C185.321 270.928 186.544 271.518 188.073 271.518C188.073 271.518 188.226 271.518 188.532 271.518C189.45 271.518 190.214 271.282 190.826 270.81C192.355 270.102 193.119 269.04 193.119 267.624C193.119 266.916 192.813 266.326 192.202 265.854L100.459 159.3L191.743 88.5C192.661 87.792 193.119 86.966 193.119 86.022C193.119 85.078 192.661 84.252 191.743 83.544C190.826 82.836 189.602 82.482 188.073 82.482C186.85 82.482 185.78 82.836 184.862 83.544L51.8349 186.558V86.376C51.8349 85.196 51.3761 84.252 50.4587 83.544C49.5413 82.836 48.4709 82.482 47.2477 82.482C46.6361 82.482 46.0245 82.6 45.4128 82.836C44.8012 83.072 44.1896 83.426 43.578 83.898C43.2722 84.134 42.9664 84.488 42.6605 84.96C42.3547 85.432 42.2018 85.904 42.2018 86.376V267.624C42.2018 268.804 42.6606 269.748 43.578 270.456C44.4954 271.164 45.5657 271.518 46.789 271.518C48.318 271.518 49.5413 271.164 50.4587 270.456C51.3761 269.748 51.8349 268.804 51.8349 267.624V196.47Z" fill="black"/>
</svg>
