<svg width="300" height="354" viewBox="0 0 300 354" fill="none" xmlns="http://www.w3.org/2000/svg">
<path id="S" d="M0 0H300V354H0V326.742H264.679V122.484H235.321V267.624H188.073V304.086H0V86.376H47.2477V49.914H264.679V27.258H0V0ZM193.119 140.538V128.502C193.119 115.758 187.309 104.902 175.688 95.934C164.067 86.966 150 82.482 133.486 82.482H101.835C85.3211 82.482 71.2538 86.966 59.633 95.934C48.0122 104.902 42.2018 115.758 42.2018 128.502C42.2018 137.47 46.1774 146.202 54.1284 154.698C62.0795 163.194 71.7125 168.976 83.0275 172.044L149.541 189.036C159.021 191.396 166.972 196.234 173.395 203.55C180.122 210.63 183.486 217.946 183.486 225.498C183.486 236.118 178.593 245.204 168.807 252.756C159.021 260.308 147.248 264.084 133.486 264.084H101.835C88.0734 264.084 76.2997 260.308 66.5138 252.756C56.7278 245.204 51.8349 236.118 51.8349 225.498V213.462C51.8349 212.282 51.3761 211.338 50.4587 210.63C49.5413 209.922 48.318 209.568 46.789 209.568C45.5658 209.568 44.4954 209.922 43.578 210.63C42.6606 211.338 42.2018 212.282 42.2018 213.462V225.498C42.5076 238.242 48.318 249.098 59.633 258.066C71.2538 267.034 85.3211 271.518 101.835 271.518H133.486C144.495 271.518 154.434 269.512 163.303 265.5C172.477 261.252 179.664 255.588 184.862 248.508C190.367 241.428 193.119 233.758 193.119 225.498C193.119 216.53 189.144 207.798 181.193 199.302C173.242 190.806 163.609 185.024 152.294 181.956L85.7798 164.964C76.6055 162.604 68.6544 157.884 61.9266 150.804C55.1988 143.488 51.8349 136.054 51.8349 128.502C51.8349 117.882 56.7278 108.796 66.5138 101.244C76.2997 93.692 88.0734 89.916 101.835 89.916H133.486C147.248 89.916 159.021 93.692 168.807 101.244C178.593 108.796 183.486 117.882 183.486 128.502V140.538C183.486 141.718 183.945 142.662 184.862 143.37C185.78 144.078 186.85 144.432 188.073 144.432C189.602 144.432 190.826 144.078 191.743 143.37C192.661 142.662 193.119 141.718 193.119 140.538Z" fill="black"/>
</svg>
